<?xml version="1.0" encoding="UTF-8"?>
<svg width="30px" height="30px" viewBox="0 0 30 30" version="1.1" xmlns="http://www.w3.org/2000/svg" xmlns:xlink="http://www.w3.org/1999/xlink">
    <title>密码</title>
    <g id="页面-1" stroke="none" stroke-width="1" fill="none" fill-rule="evenodd">
        <g id="登录" transform="translate(-1231.000000, -521.000000)">
            <g id="编组" transform="translate(1184.000000, 340.000000)">
                <g id="编组-3" transform="translate(34.000000, 168.000000)">
                    <g id="密码" transform="translate(13.000000, 13.000000)">
                        <rect id="矩形" x="0" y="0" width="30" height="30"></rect>
                        <path d="M15,3 C18.8659932,3 22,6.13400675 22,10 L22,12 L22,12 L8,12 L8,10 C8,6.13400675 11.1340068,3 15,3 Z M7,12 L23,12 C24.1045695,12 25,12.8954305 25,14 L25,25 C25,26.1045695 24.1045695,27 23,27 L7,27 C5.8954305,27 5,26.1045695 5,25 L5,14 C5,12.8954305 5.8954305,12 7,12 Z M15,18 L15,22" stroke="#4B4B4B" stroke-width="2.5" stroke-linejoin="round"></path>
                    </g>
                </g>
            </g>
        </g>
    </g>
</svg>