<?xml version="1.0" encoding="UTF-8"?>
<svg width="30px" height="30px" viewBox="0 0 30 30" version="1.1" xmlns="http://www.w3.org/2000/svg" xmlns:xlink="http://www.w3.org/1999/xlink">
    <title>240显示、可见</title>
    <g id="页面-1" stroke="none" stroke-width="1" fill="none" fill-rule="evenodd">
        <g id="登录状态" transform="translate(-1338.000000, -503.000000)">
            <g id="编组备份-2" transform="translate(982.000000, 322.000000)">
                <g id="编组-6" transform="translate(34.000000, 168.000000)">
                    <g id="240显示、可见" transform="translate(322.000000, 13.000000)">
                        <rect id="矩形" x="0" y="0" width="30" height="30"></rect>
                        <path d="M14.9859521,6 C9.08584807,6 3.41050989,9.740625 1.5,15 C3.41050989,20.259375 9.08584807,24 14.9859521,24 C20.8579605,24 26.5894901,20.259375 28.5,15 C26.5613944,9.740625 20.8579605,6 14.9859521,6 Z M14.9859521,20.625 C11.8954214,20.625 9.36680541,18.09375 9.36680541,15 C9.36680541,11.90625 11.8954214,9.375 14.9859521,9.375 C18.0764828,9.375 20.6050989,11.90625 20.6050989,15 C20.6050989,18.09375 18.0764828,20.625 14.9859521,20.625 Z M18.3574402,15 C18.3574402,16.85625 16.8402706,18.375 14.9859521,18.375 C13.1316337,18.375 11.6144641,16.85625 11.6144641,15 C11.6144641,13.14375 13.1316337,11.625 14.9859521,11.625 C16.8402706,11.625 18.3574402,13.14375 18.3574402,15 Z" id="形状" fill="#BDBDBD" fill-rule="nonzero"></path>
                    </g>
                </g>
            </g>
        </g>
    </g>
</svg>