<?xml version="1.0" encoding="UTF-8"?>
<svg width="30px" height="30px" viewBox="0 0 30 30" version="1.1" xmlns="http://www.w3.org/2000/svg" xmlns:xlink="http://www.w3.org/1999/xlink">
    <title>账号</title>
    <g id="页面-1" stroke="none" stroke-width="1" fill="none" fill-rule="evenodd">
        <g id="登录" transform="translate(-1231.000000, -425.000000)">
            <g id="编组" transform="translate(1184.000000, 340.000000)">
                <g id="编组-2" transform="translate(34.000000, 72.000000)">
                    <g id="账号" transform="translate(13.000000, 13.000000)">
                        <rect id="矩形" x="0" y="0" width="30" height="30"></rect>
                        <path d="M18.9009805,17 C21.865843,17 24.4185426,19.0927132 25,22 L25.5215535,24.6077677 C25.7381774,25.6908872 25.035744,26.7445375 23.9526245,26.9611614 C23.8234781,26.9869906 23.6920962,27 23.5603922,27 L6.43960781,27 C5.33503831,27 4.43960781,26.1045695 4.43960781,25 C4.43960781,24.868296 4.45261718,24.7369141 4.47844645,24.6077677 L5,22 C5.58145737,19.0927132 8.13415704,17 11.0990195,17 L18.9009805,17 Z M17,3 C18.1045695,3 19,3.8954305 19,5 L19,5 L19,11 C19,12.1045695 18.1045695,13 17,13 L17,13 L13,13 C11.8954305,13 11,12.1045695 11,11 L11,11 L11,7 C11,4.790861 12.790861,3 15,3 L15,3 Z" stroke="#4B4B4B" stroke-width="2.5"></path>
                    </g>
                </g>
            </g>
        </g>
    </g>
</svg>