<?xml version="1.0" encoding="UTF-8"?>
<svg width="30px" height="30px" viewBox="0 0 30 30" version="1.1" xmlns="http://www.w3.org/2000/svg" xmlns:xlink="http://www.w3.org/1999/xlink">
    <title>241隐藏、不可见</title>
    <g id="页面-1" stroke="none" stroke-width="1" fill="none" fill-rule="evenodd">
        <g id="登录状态" transform="translate(-862.000000, -503.000000)">
            <g id="编组" transform="translate(506.000000, 322.000000)">
                <g id="编组-6" transform="translate(34.000000, 168.000000)">
                    <g id="241隐藏、不可见" transform="translate(322.000000, 13.000000)">
                        <rect id="矩形" x="0" y="0" width="30" height="30"></rect>
                        <path d="M24.9259517,4.51730086 L26.5169517,6.10830086 L24.3277061,8.31531532 C26.1922101,9.77121566 27.7094904,11.6521213 28.5750372,13.7927523 L28.7209533,14.1731732 C26.8301887,19.4144144 21.1578947,23.1421421 15.346574,23.1421421 C13.8434352,23.1427489 12.3517028,22.8915976 10.9320979,22.3999449 L10.5084409,22.2452452 L7.12995167,25.6503009 L5.53895167,24.0593009 L24.9259517,4.51730086 Z M15.346574,5.2042042 C17.0148957,5.2042042 18.6554121,5.51251251 20.2125124,6.07307307 L20.2125124,6.07307307 L17.3485601,8.95995996 C16.7368421,8.70770771 16.0695134,8.56756757 15.346574,8.56756757 C12.2879841,8.56756757 9.78550149,11.0900901 9.78550149,14.1731732 C9.78550149,14.9019019 9.9245283,15.5745746 10.1747766,16.1911912 L10.1747766,16.1911912 L6.36544191,20.031031 C4.39126117,18.4894895 2.83416087,16.4714715 2,14.1731732 C3.89076465,8.93193193 9.50744786,5.2042042 15.346574,5.2042042 Z M20.5739821,12.0990991 L18.7110228,13.976977 L18.7110228,14.1451451 C18.7110228,15.9333333 17.3079643,17.4072339 15.5567393,17.5035071 L15.3743793,17.5085085 L15.2075472,17.5085085 L13.3445879,19.3863864 C13.9563059,19.6386386 14.6514399,19.7787788 15.346574,19.7787788 C18.4051639,19.7787788 20.9076465,17.2562563 20.9076465,14.1731732 C20.9076465,13.5892559 20.8111001,13.0053387 20.6662805,12.4376413 L20.5739821,12.0990991 Z M15.5134062,10.8098098 L12.0099305,14.3413413 L12.0099305,14.1731732 C12.0099305,12.384985 13.4129891,10.9110844 15.1642141,10.8148113 L15.346574,10.8098098 L15.5134062,10.8098098 Z" id="形状结合" fill="#BDBDBD" fill-rule="nonzero"></path>
                    </g>
                </g>
            </g>
        </g>
    </g>
</svg>